<?xml version="1.0" encoding="UTF-8" standalone="no"?>
<!DOCTYPE svg PUBLIC "-//W3C//DTD SVG 1.1//EN"
 "http://www.w3.org/Graphics/SVG/1.1/DTD/svg11.dtd">
<!-- Generated by graphviz version 14.1.1 (20251213.1925)
 -->
<!-- Title: mh_ewss_architecture Pages: 1 -->
<svg width="4200pt" height="1017pt"
 viewBox="0.00 0.00 4200.00 1017.00" xmlns="http://www.w3.org/2000/svg" xmlns:xlink="http://www.w3.org/1999/xlink">
<g id="graph0" class="graph" transform="scale(1.52077 1.52077) rotate(0) translate(36 633)">
<title>mh_ewss_architecture</title>
<polygon fill="white" stroke="none" points="-36,36 -36,-633 2725.75,-633 2725.75,36 -36,36"/>
<g id="clust1" class="cluster">
<title>cluster_architecture</title>
<polygon fill="#f8f9fa" stroke="#1976d2" stroke-width="2" points="8,-8 8,-589 2681.75,-589 2681.75,-8 8,-8"/>
<text xml:space="preserve" text-anchor="middle" x="1344.88" y="-569.8" font-family="Times New Roman,serif" font-size="16.00" fill="#1976d2">MH&#45;EWSS System Architecture (Hybrid Neurosymbolic AI)</text>
</g>
<g id="clust2" class="cluster">
<title>cluster_input</title>
<polygon fill="#bbdefb" stroke="#bbdefb" stroke-width="2" points="16,-130 16,-322 470.5,-322 470.5,-130 16,-130"/>
<text xml:space="preserve" text-anchor="middle" x="243.25" y="-302.8" font-family="Times New Roman,serif" font-size="16.00" fill="#1976d2">Input Layer</text>
</g>
<g id="clust3" class="cluster">
<title>cluster_features</title>
<polygon fill="#ffcc80" stroke="#ffcc80" stroke-width="2" points="608.25,-153 608.25,-554 1191.75,-554 1191.75,-153 608.25,-153"/>
<text xml:space="preserve" text-anchor="middle" x="900" y="-534.8" font-family="Times New Roman,serif" font-size="16.00" fill="#1976d2">Feature Extraction Layer (LangGraph Nodes)</text>
</g>
<g id="clust4" class="cluster">
<title>cluster_storage</title>
<polygon fill="#ce93d8" stroke="#ce93d8" stroke-width="2" points="1387.62,-168 1387.62,-282 1584.62,-282 1584.62,-168 1387.62,-168"/>
<text xml:space="preserve" text-anchor="middle" x="1486.12" y="-262.8" font-family="Times New Roman,serif" font-size="16.00" fill="#1976d2">Storage Layer</text>
</g>
<g id="clust5" class="cluster">
<title>cluster_ml</title>
<polygon fill="#fff176" stroke="#fff176" stroke-width="2" points="1015,-16 1015,-145 1618.75,-145 1618.75,-16 1015,-16"/>
<text xml:space="preserve" text-anchor="middle" x="1316.88" y="-125.8" font-family="Times New Roman,serif" font-size="16.00" fill="#1976d2">ML Model Layer</text>
</g>
<g id="clust6" class="cluster">
<title>cluster_ai</title>
<polygon fill="#81c784" stroke="#81c784" stroke-width="2" points="1750.5,-122 1750.5,-283 1973,-283 1973,-122 1750.5,-122"/>
<text xml:space="preserve" text-anchor="middle" x="1861.75" y="-263.8" font-family="Times New Roman,serif" font-size="16.00" fill="#1976d2">AI Decision Layer (LLM)</text>
</g>
<g id="clust7" class="cluster">
<title>cluster_output</title>
<polygon fill="#ef5350" stroke="#ef5350" stroke-width="2" points="2478.25,-158 2478.25,-303 2673.75,-303 2673.75,-158 2478.25,-158"/>
<text xml:space="preserve" text-anchor="middle" x="2576" y="-283.8" font-family="Times New Roman,serif" font-size="16.00" fill="#1976d2">Output Layer</text>
</g>
<!-- crema_dataset -->
<g id="node1" class="node">
<title>crema_dataset</title>
<path fill="#e3f2fd" stroke="black" d="M166,-183.75C166,-183.75 36,-183.75 36,-183.75 30,-183.75 24,-177.75 24,-171.75 24,-171.75 24,-156.25 24,-156.25 24,-150.25 30,-144.25 36,-144.25 36,-144.25 166,-144.25 166,-144.25 172,-144.25 178,-150.25 178,-156.25 178,-156.25 178,-171.75 178,-171.75 178,-177.75 172,-183.75 166,-183.75"/>
<text xml:space="preserve" text-anchor="middle" x="101" y="-166.45" font-family="Arial" font-size="14.00">CREMA&#45;D Dataset</text>
<text xml:space="preserve" text-anchor="middle" x="101" y="-150.7" font-family="Arial" font-size="14.00">(7,441 AudioWAV files)</text>
</g>
<!-- audio_processing -->
<g id="node3" class="node">
<title>audio_processing</title>
<path fill="#fff3e0" stroke="black" d="M450.5,-287.38C450.5,-287.38 334,-287.38 334,-287.38 328,-287.38 322,-281.38 322,-275.38 322,-275.38 322,-212.62 322,-212.62 322,-206.62 328,-200.62 334,-200.62 334,-200.62 450.5,-200.62 450.5,-200.62 456.5,-200.62 462.5,-206.62 462.5,-212.62 462.5,-212.62 462.5,-275.38 462.5,-275.38 462.5,-281.38 456.5,-287.38 450.5,-287.38"/>
<text xml:space="preserve" text-anchor="middle" x="392.25" y="-270.07" font-family="Arial" font-size="14.00">Audio Preprocessing</text>
<text xml:space="preserve" text-anchor="middle" x="392.25" y="-254.32" font-family="Arial" font-size="14.00">• Load &amp; Normalize</text>
<text xml:space="preserve" text-anchor="middle" x="392.25" y="-238.57" font-family="Arial" font-size="14.00">• Noise Reduction</text>
<text xml:space="preserve" text-anchor="middle" x="392.25" y="-222.82" font-family="Arial" font-size="14.00">• Voice Detection</text>
<text xml:space="preserve" text-anchor="middle" x="392.25" y="-207.07" font-family="Arial" font-size="14.00">• Silence Trimming</text>
</g>
<!-- crema_dataset&#45;&gt;audio_processing -->
<g id="edge1" class="edge">
<title>crema_dataset&#45;&gt;audio_processing</title>
<path fill="none" stroke="black" d="M174.99,-184.19C216.4,-195.64 268.3,-210 310.88,-221.77"/>
<polygon fill="black" stroke="black" points="309.74,-225.09 320.31,-224.38 311.61,-218.34 309.74,-225.09"/>
<text xml:space="preserve" text-anchor="middle" x="250" y="-216.37" font-family="Arial" font-size="12.00">Training Data</text>
</g>
<!-- train_script -->
<g id="node9" class="node">
<title>train_script</title>
<path fill="#fff9c4" stroke="black" stroke-dasharray="5,2" d="M1138.75,-110.5C1138.75,-110.5 1035,-110.5 1035,-110.5 1029,-110.5 1023,-104.5 1023,-98.5 1023,-98.5 1023,-51.5 1023,-51.5 1023,-45.5 1029,-39.5 1035,-39.5 1035,-39.5 1138.75,-39.5 1138.75,-39.5 1144.75,-39.5 1150.75,-45.5 1150.75,-51.5 1150.75,-51.5 1150.75,-98.5 1150.75,-98.5 1150.75,-104.5 1144.75,-110.5 1138.75,-110.5"/>
<text xml:space="preserve" text-anchor="middle" x="1086.88" y="-93.2" font-family="Arial" font-size="14.00">train_ml_model.py</text>
<text xml:space="preserve" text-anchor="middle" x="1086.88" y="-77.45" font-family="Arial" font-size="14.00">• scikit&#45;learn</text>
<text xml:space="preserve" text-anchor="middle" x="1086.88" y="-61.7" font-family="Arial" font-size="14.00">• 70% Accuracy</text>
<text xml:space="preserve" text-anchor="middle" x="1086.88" y="-45.95" font-family="Arial" font-size="14.00">• Saved as .pkl</text>
</g>
<!-- crema_dataset&#45;&gt;train_script -->
<g id="edge2" class="edge">
<title>crema_dataset&#45;&gt;train_script</title>
<path fill="none" stroke="#f57c00" stroke-dasharray="5,2" d="M178.38,-157.09C362.48,-140.44 828.92,-98.24 1011.23,-81.75"/>
<polygon fill="#f57c00" stroke="#f57c00" points="1011.41,-85.25 1021.06,-80.86 1010.78,-78.28 1011.41,-85.25"/>
<text xml:space="preserve" text-anchor="middle" x="539.38" y="-130.52" font-family="Arial" font-size="12.00">Train ML Model</text>
</g>
<!-- user_audio -->
<g id="node2" class="node">
<title>user_audio</title>
<path fill="#e3f2fd" stroke="black" d="M146.88,-286.75C146.88,-286.75 55.12,-286.75 55.12,-286.75 49.12,-286.75 43.12,-280.75 43.12,-274.75 43.12,-274.75 43.12,-259.25 43.12,-259.25 43.12,-253.25 49.12,-247.25 55.12,-247.25 55.12,-247.25 146.88,-247.25 146.88,-247.25 152.88,-247.25 158.88,-253.25 158.88,-259.25 158.88,-259.25 158.88,-274.75 158.88,-274.75 158.88,-280.75 152.88,-286.75 146.88,-286.75"/>
<text xml:space="preserve" text-anchor="middle" x="101" y="-269.45" font-family="Arial" font-size="14.00">User Audio Input</text>
<text xml:space="preserve" text-anchor="middle" x="101" y="-253.7" font-family="Arial" font-size="14.00">(.wav upload)</text>
</g>
<!-- user_audio&#45;&gt;audio_processing -->
<g id="edge3" class="edge">
<title>user_audio&#45;&gt;audio_processing</title>
<path fill="none" stroke="black" d="M159.15,-262.46C202.36,-259.02 262.26,-254.26 310.38,-250.43"/>
<polygon fill="black" stroke="black" points="310.52,-253.93 320.21,-249.65 309.96,-246.95 310.52,-253.93"/>
<text xml:space="preserve" text-anchor="middle" x="250" y="-260.41" font-family="Arial" font-size="12.00">Live Audio</text>
</g>
<!-- prosody_agent -->
<g id="node4" class="node">
<title>prosody_agent</title>
<path fill="#fff3e0" stroke="black" d="M774.38,-326.75C774.38,-326.75 655.62,-326.75 655.62,-326.75 649.62,-326.75 643.62,-320.75 643.62,-314.75 643.62,-314.75 643.62,-173.25 643.62,-173.25 643.62,-167.25 649.62,-161.25 655.62,-161.25 655.62,-161.25 774.38,-161.25 774.38,-161.25 780.38,-161.25 786.38,-167.25 786.38,-173.25 786.38,-173.25 786.38,-314.75 786.38,-314.75 786.38,-320.75 780.38,-326.75 774.38,-326.75"/>
<text xml:space="preserve" text-anchor="middle" x="715" y="-309.45" font-family="Arial" font-size="14.00">Prosody Agent</text>
<text xml:space="preserve" text-anchor="middle" x="715" y="-293.7" font-family="Arial" font-size="14.00">(How you speak)</text>
<text xml:space="preserve" text-anchor="middle" x="715" y="-277.95" font-family="Arial" font-size="14.00">• Pitch Mean &amp; Std</text>
<text xml:space="preserve" text-anchor="middle" x="715" y="-262.2" font-family="Arial" font-size="14.00">• Energy Mean &amp; Std</text>
<text xml:space="preserve" text-anchor="middle" x="715" y="-246.45" font-family="Arial" font-size="14.00">• Speech Rate</text>
<text xml:space="preserve" text-anchor="middle" x="715" y="-230.7" font-family="Arial" font-size="14.00">• Pause Ratio</text>
<text xml:space="preserve" text-anchor="middle" x="715" y="-214.95" font-family="Arial" font-size="14.00">• HNR</text>
<text xml:space="preserve" text-anchor="middle" x="715" y="-199.2" font-family="Arial" font-size="14.00">• Zero Crossing Rate</text>
<text xml:space="preserve" text-anchor="middle" x="715" y="-183.45" font-family="Arial" font-size="14.00">• Spectral Centroid</text>
<text xml:space="preserve" text-anchor="middle" x="715" y="-167.7" font-family="Arial" font-size="14.00">• Spectral Rolloff</text>
</g>
<!-- audio_processing&#45;&gt;prosody_agent -->
<g id="edge4" class="edge">
<title>audio_processing&#45;&gt;prosody_agent</title>
<path fill="none" stroke="black" d="M462.85,-244C512.54,-244 579.57,-244 631.89,-244"/>
<polygon fill="black" stroke="black" points="631.64,-247.5 641.64,-244 631.64,-240.5 631.64,-247.5"/>
<text xml:space="preserve" text-anchor="middle" x="539.38" y="-246.85" font-family="Arial" font-size="12.00">10 Features</text>
</g>
<!-- language_agent -->
<g id="node5" class="node">
<title>language_agent</title>
<path fill="#fff3e0" stroke="black" d="M801.75,-519C801.75,-519 628.25,-519 628.25,-519 622.25,-519 616.25,-513 616.25,-507 616.25,-507 616.25,-397 616.25,-397 616.25,-391 622.25,-385 628.25,-385 628.25,-385 801.75,-385 801.75,-385 807.75,-385 813.75,-391 813.75,-397 813.75,-397 813.75,-507 813.75,-507 813.75,-513 807.75,-519 801.75,-519"/>
<text xml:space="preserve" text-anchor="middle" x="715" y="-501.7" font-family="Arial" font-size="14.00">Language Agent</text>
<text xml:space="preserve" text-anchor="middle" x="715" y="-485.95" font-family="Arial" font-size="14.00">(What you say)</text>
<text xml:space="preserve" text-anchor="middle" x="715" y="-470.2" font-family="Arial" font-size="14.00">• Speech&#45;to&#45;Text (Google API)</text>
<text xml:space="preserve" text-anchor="middle" x="715" y="-454.45" font-family="Arial" font-size="14.00">• Sentiment Polarity</text>
<text xml:space="preserve" text-anchor="middle" x="715" y="-438.7" font-family="Arial" font-size="14.00">• Sentiment Subjectivity</text>
<text xml:space="preserve" text-anchor="middle" x="715" y="-422.95" font-family="Arial" font-size="14.00">• Vocabulary Richness</text>
<text xml:space="preserve" text-anchor="middle" x="715" y="-407.2" font-family="Arial" font-size="14.00">• Word Count</text>
<text xml:space="preserve" text-anchor="middle" x="715" y="-391.45" font-family="Arial" font-size="14.00">• Sentence Complexity</text>
</g>
<!-- audio_processing&#45;&gt;language_agent -->
<g id="edge5" class="edge">
<title>audio_processing&#45;&gt;language_agent</title>
<path fill="none" stroke="black" d="M460.88,-287.86C503.1,-315.23 558.38,-351.08 606.5,-382.29"/>
<polygon fill="black" stroke="black" points="604.46,-385.14 614.76,-387.64 608.27,-379.26 604.46,-385.14"/>
<text xml:space="preserve" text-anchor="middle" x="539.38" y="-363.3" font-family="Arial" font-size="12.00">6 Features</text>
</g>
<!-- temporal_agent -->
<g id="node6" class="node">
<title>temporal_agent</title>
<path fill="#fff3e0" stroke="black" d="M1171.75,-287.38C1171.75,-287.38 1002,-287.38 1002,-287.38 996,-287.38 990,-281.38 990,-275.38 990,-275.38 990,-212.62 990,-212.62 990,-206.62 996,-200.62 1002,-200.62 1002,-200.62 1171.75,-200.62 1171.75,-200.62 1177.75,-200.62 1183.75,-206.62 1183.75,-212.62 1183.75,-212.62 1183.75,-275.38 1183.75,-275.38 1183.75,-281.38 1177.75,-287.38 1171.75,-287.38"/>
<text xml:space="preserve" text-anchor="middle" x="1086.88" y="-270.07" font-family="Arial" font-size="14.00">Temporal Agent</text>
<text xml:space="preserve" text-anchor="middle" x="1086.88" y="-254.32" font-family="Arial" font-size="14.00">(Changes over time)</text>
<text xml:space="preserve" text-anchor="middle" x="1086.88" y="-238.57" font-family="Arial" font-size="14.00">• Store Features in DB</text>
<text xml:space="preserve" text-anchor="middle" x="1086.88" y="-222.82" font-family="Arial" font-size="14.00">• Calculate Personal Baseline</text>
<text xml:space="preserve" text-anchor="middle" x="1086.88" y="-207.07" font-family="Arial" font-size="14.00">• Track Trends</text>
</g>
<!-- prosody_agent&#45;&gt;temporal_agent -->
<g id="edge6" class="edge">
<title>prosody_agent&#45;&gt;temporal_agent</title>
<path fill="none" stroke="black" d="M786.44,-244C840.7,-244 916.65,-244 978.47,-244"/>
<polygon fill="black" stroke="black" points="978.33,-247.5 988.33,-244 978.33,-240.5 978.33,-247.5"/>
<text xml:space="preserve" text-anchor="middle" x="901.88" y="-246.85" font-family="Arial" font-size="12.00">Prosody Features</text>
</g>
<!-- langgraph -->
<g id="node12" class="node">
<title>langgraph</title>
<path fill="#fff9c4" stroke="#f57c00" d="M2169.93,-347.32C2169.93,-347.32 2049.57,-314.18 2049.57,-314.18 2043.78,-312.59 2043.78,-309.41 2049.57,-307.82 2049.57,-307.82 2169.93,-274.68 2169.93,-274.68 2175.72,-273.09 2187.28,-273.09 2193.07,-274.68 2193.07,-274.68 2313.43,-307.82 2313.43,-307.82 2319.22,-309.41 2319.22,-312.59 2313.43,-314.18 2313.43,-314.18 2193.07,-347.32 2193.07,-347.32 2187.28,-348.91 2175.72,-348.91 2169.93,-347.32"/>
<text xml:space="preserve" text-anchor="middle" x="2181.5" y="-313.45" font-family="Arial" font-size="14.00">LangGraph Workflow</text>
<text xml:space="preserve" text-anchor="middle" x="2181.5" y="-297.7" font-family="Arial" font-size="14.00">Orchestrator</text>
</g>
<!-- prosody_agent&#45;&gt;langgraph -->
<g id="edge13" class="edge">
<title>prosody_agent&#45;&gt;langgraph</title>
<path fill="none" stroke="#666666" stroke-dasharray="5,2" d="M786.84,-319.27C805.69,-334.85 827.15,-349.18 849.75,-358 947.59,-396.17 980.85,-367 1085.88,-367 1085.88,-367 1085.88,-367 1862.75,-367 1943.63,-367 2034.37,-349.18 2098.1,-333.65"/>
<polygon fill="#666666" stroke="#666666" points="2098.55,-337.14 2107.42,-331.34 2096.87,-330.35 2098.55,-337.14"/>
</g>
<!-- language_agent&#45;&gt;temporal_agent -->
<g id="edge7" class="edge">
<title>language_agent&#45;&gt;temporal_agent</title>
<path fill="none" stroke="black" d="M784.55,-384.83C809.63,-361.25 835.35,-338.47 849.75,-329.75 889.39,-305.75 936.8,-286.9 978.7,-273.06"/>
<polygon fill="black" stroke="black" points="979.64,-276.44 988.07,-270.03 977.48,-269.78 979.64,-276.44"/>
<text xml:space="preserve" text-anchor="middle" x="901.88" y="-332.6" font-family="Arial" font-size="12.00">Language Features</text>
</g>
<!-- language_agent&#45;&gt;langgraph -->
<g id="edge14" class="edge">
<title>language_agent&#45;&gt;langgraph</title>
<path fill="none" stroke="#666666" stroke-dasharray="5,2" d="M814.11,-448.31C888.64,-445.83 993.7,-443 1085.88,-443 1085.88,-443 1085.88,-443 1862.75,-443 1964.25,-443 2070.99,-384.85 2131.3,-345.74"/>
<polygon fill="#666666" stroke="#666666" points="2132.88,-348.89 2139.31,-340.47 2129.03,-343.05 2132.88,-348.89"/>
</g>
<!-- database -->
<g id="node7" class="node">
<title>database</title>
<path fill="#f3e5f5" stroke="black" d="M1564.62,-247.5C1564.62,-247.5 1407.62,-247.5 1407.62,-247.5 1401.62,-247.5 1395.62,-241.5 1395.62,-235.5 1395.62,-235.5 1395.62,-188.5 1395.62,-188.5 1395.62,-182.5 1401.62,-176.5 1407.62,-176.5 1407.62,-176.5 1564.62,-176.5 1564.62,-176.5 1570.62,-176.5 1576.62,-182.5 1576.62,-188.5 1576.62,-188.5 1576.62,-235.5 1576.62,-235.5 1576.62,-241.5 1570.62,-247.5 1564.62,-247.5"/>
<text xml:space="preserve" text-anchor="middle" x="1486.12" y="-230.2" font-family="Arial" font-size="14.00">SQLite Database</text>
<text xml:space="preserve" text-anchor="middle" x="1486.12" y="-214.45" font-family="Arial" font-size="14.00">• Feature Records (16 cols)</text>
<text xml:space="preserve" text-anchor="middle" x="1486.12" y="-198.7" font-family="Arial" font-size="14.00">• Personal Baselines</text>
<text xml:space="preserve" text-anchor="middle" x="1486.12" y="-182.95" font-family="Arial" font-size="14.00">• Historical Data</text>
</g>
<!-- temporal_agent&#45;&gt;database -->
<g id="edge8" class="edge">
<title>temporal_agent&#45;&gt;database</title>
<path fill="none" stroke="black" d="M1184.23,-227.76C1196.17,-226.12 1208.22,-224.64 1219.75,-223.5 1273.82,-218.14 1334.33,-215.28 1383.9,-213.75"/>
<polygon fill="black" stroke="black" points="1383.87,-217.25 1393.77,-213.46 1383.67,-210.26 1383.87,-217.25"/>
<text xml:space="preserve" text-anchor="middle" x="1272.62" y="-240.6" font-family="Arial" font-size="12.00">Store &amp; Retrieve</text>
<text xml:space="preserve" text-anchor="middle" x="1272.62" y="-226.35" font-family="Arial" font-size="12.00">Baseline</text>
</g>
<!-- ml_specialist -->
<g id="node8" class="node">
<title>ml_specialist</title>
<path fill="#fff9c4" stroke="black" d="M1598.75,-110.38C1598.75,-110.38 1373.5,-110.38 1373.5,-110.38 1367.5,-110.38 1361.5,-104.38 1361.5,-98.38 1361.5,-98.38 1361.5,-35.62 1361.5,-35.62 1361.5,-29.62 1367.5,-23.62 1373.5,-23.62 1373.5,-23.62 1598.75,-23.62 1598.75,-23.62 1604.75,-23.62 1610.75,-29.62 1610.75,-35.62 1610.75,-35.62 1610.75,-98.38 1610.75,-98.38 1610.75,-104.38 1604.75,-110.38 1598.75,-110.38"/>
<text xml:space="preserve" text-anchor="middle" x="1486.12" y="-93.08" font-family="Arial" font-size="14.00">ML Specialist Agent</text>
<text xml:space="preserve" text-anchor="middle" x="1486.12" y="-77.33" font-family="Arial" font-size="14.00">(Random Forest Classifier)</text>
<text xml:space="preserve" text-anchor="middle" x="1486.12" y="-61.58" font-family="Arial" font-size="14.00">• Trained on 7,441 CREMA&#45;D samples</text>
<text xml:space="preserve" text-anchor="middle" x="1486.12" y="-45.83" font-family="Arial" font-size="14.00">• Acoustic Risk Probability</text>
<text xml:space="preserve" text-anchor="middle" x="1486.12" y="-30.07" font-family="Arial" font-size="14.00">• Binary: Low Risk / High Risk</text>
</g>
<!-- temporal_agent&#45;&gt;ml_specialist -->
<g id="edge9" class="edge">
<title>temporal_agent&#45;&gt;ml_specialist</title>
<path fill="none" stroke="black" d="M1184.04,-201.15C1242.1,-175.28 1316.26,-142.24 1376.44,-115.43"/>
<polygon fill="black" stroke="black" points="1377.65,-118.72 1385.36,-111.45 1374.8,-112.33 1377.65,-118.72"/>
<text xml:space="preserve" text-anchor="middle" x="1272.62" y="-184.55" font-family="Arial" font-size="12.00">Current Features</text>
</g>
<!-- temporal_agent&#45;&gt;langgraph -->
<g id="edge15" class="edge">
<title>temporal_agent&#45;&gt;langgraph</title>
<path fill="none" stroke="#666666" stroke-dasharray="5,2" d="M1184.16,-266.43C1236.33,-277.54 1302.1,-289.86 1361.5,-296 1599.17,-320.58 1877.64,-319.36 2040.99,-315.61"/>
<polygon fill="#666666" stroke="#666666" points="2040.64,-319.12 2050.55,-315.39 2040.47,-312.12 2040.64,-319.12"/>
</g>
<!-- llm_agent -->
<g id="node10" class="node">
<title>llm_agent</title>
<path fill="#e8f5e8" stroke="black" d="M1953,-248.12C1953,-248.12 1770.5,-248.12 1770.5,-248.12 1764.5,-248.12 1758.5,-242.12 1758.5,-236.12 1758.5,-236.12 1758.5,-141.88 1758.5,-141.88 1758.5,-135.88 1764.5,-129.88 1770.5,-129.88 1770.5,-129.88 1953,-129.88 1953,-129.88 1959,-129.88 1965,-135.88 1965,-141.88 1965,-141.88 1965,-236.12 1965,-236.12 1965,-242.12 1959,-248.12 1953,-248.12"/>
<text xml:space="preserve" text-anchor="middle" x="1861.75" y="-230.82" font-family="Arial" font-size="14.00">LLM Decision Agent</text>
<text xml:space="preserve" text-anchor="middle" x="1861.75" y="-215.07" font-family="Arial" font-size="14.00">(Google Gemini API)</text>
<text xml:space="preserve" text-anchor="middle" x="1861.75" y="-199.32" font-family="Arial" font-size="14.00">• Receives ML Risk Score</text>
<text xml:space="preserve" text-anchor="middle" x="1861.75" y="-183.57" font-family="Arial" font-size="14.00">• Receives Baseline Deviation</text>
<text xml:space="preserve" text-anchor="middle" x="1861.75" y="-167.82" font-family="Arial" font-size="14.00">• Risk Assessment</text>
<text xml:space="preserve" text-anchor="middle" x="1861.75" y="-152.07" font-family="Arial" font-size="14.00">• Natural Language Explanation</text>
<text xml:space="preserve" text-anchor="middle" x="1861.75" y="-136.32" font-family="Arial" font-size="14.00">• Recommendations</text>
</g>
<!-- database&#45;&gt;llm_agent -->
<g id="edge12" class="edge">
<title>database&#45;&gt;llm_agent</title>
<path fill="none" stroke="black" d="M1577.09,-206.46C1627.99,-203.33 1692.15,-199.38 1746.57,-196.03"/>
<polygon fill="black" stroke="black" points="1746.75,-199.52 1756.52,-195.42 1746.32,-192.54 1746.75,-199.52"/>
<text xml:space="preserve" text-anchor="middle" x="1684.62" y="-204.73" font-family="Arial" font-size="12.00">Baseline Data</text>
</g>
<!-- ml_specialist&#45;&gt;llm_agent -->
<g id="edge11" class="edge">
<title>ml_specialist&#45;&gt;llm_agent</title>
<path fill="none" stroke="black" d="M1611.02,-107.45C1654.98,-121.81 1704.21,-137.88 1747.26,-151.94"/>
<polygon fill="black" stroke="black" points="1746.03,-155.22 1756.62,-155 1748.2,-148.57 1746.03,-155.22"/>
<text xml:space="preserve" text-anchor="middle" x="1684.62" y="-159.62" font-family="Arial" font-size="12.00">Acoustic Risk</text>
<text xml:space="preserve" text-anchor="middle" x="1684.62" y="-145.37" font-family="Arial" font-size="12.00">Probability %</text>
</g>
<!-- ml_specialist&#45;&gt;langgraph -->
<g id="edge16" class="edge">
<title>ml_specialist&#45;&gt;langgraph</title>
<path fill="none" stroke="#666666" stroke-dasharray="5,2" d="M1611.04,-48.69C1715.09,-39.7 1863.83,-42.33 1973,-108 2018.74,-135.52 2001.2,-170.33 2038,-209 2063.33,-235.61 2096.47,-259.82 2124.42,-277.96"/>
<polygon fill="#666666" stroke="#666666" points="2122.48,-280.87 2132.79,-283.3 2126.25,-274.97 2122.48,-280.87"/>
</g>
<!-- train_script&#45;&gt;ml_specialist -->
<g id="edge10" class="edge">
<title>train_script&#45;&gt;ml_specialist</title>
<path fill="none" stroke="#f57c00" stroke-dasharray="5,2" d="M1150.82,-73.73C1204.18,-72.66 1282.58,-71.08 1350.04,-69.72"/>
<polygon fill="#f57c00" stroke="#f57c00" points="1349.76,-73.23 1359.69,-69.53 1349.62,-66.23 1349.76,-73.23"/>
<text xml:space="preserve" text-anchor="middle" x="1272.62" y="-75.03" font-family="Arial" font-size="12.00">Trained Model (.pkl)</text>
</g>
<!-- dashboard -->
<g id="node11" class="node">
<title>dashboard</title>
<path fill="#ffebee" stroke="black" d="M2653.75,-268.25C2653.75,-268.25 2498.25,-268.25 2498.25,-268.25 2492.25,-268.25 2486.25,-262.25 2486.25,-256.25 2486.25,-256.25 2486.25,-177.75 2486.25,-177.75 2486.25,-171.75 2492.25,-165.75 2498.25,-165.75 2498.25,-165.75 2653.75,-165.75 2653.75,-165.75 2659.75,-165.75 2665.75,-171.75 2665.75,-177.75 2665.75,-177.75 2665.75,-256.25 2665.75,-256.25 2665.75,-262.25 2659.75,-268.25 2653.75,-268.25"/>
<text xml:space="preserve" text-anchor="middle" x="2576" y="-250.95" font-family="Arial" font-size="14.00">Streamlit Dashboard</text>
<text xml:space="preserve" text-anchor="middle" x="2576" y="-235.2" font-family="Arial" font-size="14.00">• Risk Level Display</text>
<text xml:space="preserve" text-anchor="middle" x="2576" y="-219.45" font-family="Arial" font-size="14.00">• Plotly Radar Chart</text>
<text xml:space="preserve" text-anchor="middle" x="2576" y="-203.7" font-family="Arial" font-size="14.00">• Voice Diagnostics Metrics</text>
<text xml:space="preserve" text-anchor="middle" x="2576" y="-187.95" font-family="Arial" font-size="14.00">• AI Recommendations</text>
<text xml:space="preserve" text-anchor="middle" x="2576" y="-172.2" font-family="Arial" font-size="14.00">• Feature List</text>
</g>
<!-- llm_agent&#45;&gt;dashboard -->
<g id="edge19" class="edge">
<title>llm_agent&#45;&gt;dashboard</title>
<path fill="none" stroke="black" d="M1965.4,-173.59C1989.18,-170.64 2014.43,-168.01 2038,-166.5 2165.3,-158.36 2197.99,-154.69 2325,-166.5 2381.39,-171.74 2394.73,-178.79 2450.25,-190 2458.16,-191.6 2466.35,-193.29 2474.58,-195.01"/>
<polygon fill="black" stroke="black" points="2473.81,-198.43 2484.31,-197.07 2475.25,-191.58 2473.81,-198.43"/>
<text xml:space="preserve" text-anchor="middle" x="2181.5" y="-183.6" font-family="Arial" font-size="12.00">Risk Assessment</text>
<text xml:space="preserve" text-anchor="middle" x="2181.5" y="-169.35" font-family="Arial" font-size="12.00">+ Explanation</text>
</g>
<!-- llm_agent&#45;&gt;langgraph -->
<g id="edge17" class="edge">
<title>llm_agent&#45;&gt;langgraph</title>
<path fill="none" stroke="#666666" stroke-dasharray="5,2" d="M1965.48,-228.44C2012.61,-246.54 2067.32,-267.54 2109.75,-283.84"/>
<polygon fill="#666666" stroke="#666666" points="2108.26,-287.01 2118.85,-287.33 2110.77,-280.48 2108.26,-287.01"/>
</g>
<!-- langgraph&#45;&gt;dashboard -->
<g id="edge18" class="edge">
<title>langgraph&#45;&gt;dashboard</title>
<path fill="none" stroke="black" d="M2259.58,-292.54C2321.22,-277.78 2408.12,-256.97 2475.1,-240.92"/>
<polygon fill="black" stroke="black" points="2475.71,-244.38 2484.62,-238.64 2474.08,-237.57 2475.71,-244.38"/>
<text xml:space="preserve" text-anchor="middle" x="2405.62" y="-269.67" font-family="Arial" font-size="12.00">Analysis Results</text>
</g>
</g>
</svg>
